<svg version="1.0" xmlns="http://www.w3.org/2000/svg" width="525.000000pt" height="609.000000pt" viewBox="0 0 525.000000 609.000000" preserveAspectRatio="xMidYMid meet" style="width: 394.396px; height: auto;"> <g transform="translate(0.000000,609.000000) scale(0.100000,-0.100000)" fill="#000000" stroke="none"> <path d="M2265 5390 c-315 -23 -670 -144 -918 -314 -37 -25 -71 -46 -77 -46 -5 0 -13 -6 -17 -13 -4 -7 -37 -35 -72 -62 -87 -66 -199 -180 -299 -303 -45 -56 -82 -104 -82 -107 0 -2 -19 -33 -43 -67 -34 -51 -105 -187 -158 -303 -26 -56 -89 -273 -107 -365 -12 -58 -26 -175 -31 -260 -15 -225 3 -395 68 -656 33 -131 151 -386 246 -534 77 -118 150 -204 295 -345 317 -309 750 -500 1215 -536 137 -10 183 -10 321 4 88 9 183 21 210 28 101 23 170 41 194 51 14 6 39 14 55 19 111 29 326 135 465 228 209 139 394 324 533 531 227 338 337 692 337 1090 0 271 -37 477 -126 705 -20 50 -40 94 -45 100 -5 5 -9 14 -9 21 0 15 -80 159 -138 249 -110 171 -314 382 -492 511 -248 178 -556 310 -815 349 -22 3 -65 10 -95 15 -78 13 -297 18 -415 10z m380 -54 c119 -15 176 -25 269 -52 26 -8 54 -14 61 -14 20 0 183 -64 282 -110 268 -126 501 -315 700 -565 234 -296 359 -618 394 -1020 10 -120 10 -165 -5 -310 -9 -94 -20 -186 -25 -205 -5 -19 -17 -64 -26 -100 -34 -129 -45 -162 -90 -265 -25 -57 -85 -180 -97 -200 -7 -11 -40 -63 -73 -115 -64 -103 -67 -107 -176 -225 -149 -162 -260 -252 -454 -372 -35 -22 -198 -100 -255 -123 -30 -12 -66 -26 -80 -32 -84 -34 -199 -62 -365 -90 -106 -17 -465 -17 -565 0 -162 28 -388 89 -446 120 -10 6 -50 25 -89 43 -167 79 -316 180 -489 329 -110 96 -239 255 -353 436 -14 21 -102 200 -126 254 -41 94 -96 296 -119 435 -17 106 -17 434 1 550 23 157 65 314 115 435 138 332 313 564 607 805 105 86 417 265 462 265 7 0 17 4 23 9 5 5 41 18 79 30 39 12 84 26 100 31 198 61 502 84 740 56z"></path> <path d="M2195 5219 c-173 -22 -355 -76 -545 -162 -106 -48 -268 -153 -375 -243 -127 -106 -313 -319 -371 -424 -10 -19 -24 -42 -30 -50 -13 -17 -82 -152 -112 -220 -47 -107 -98 -301 -118 -450 -39 -290 0 -626 101 -886 33 -84 112 -243 131 -265 8 -8 14 -19 14 -23 0 -5 39 -61 87 -125 93 -123 201 -236 315 -329 69 -56 282 -195 326 -213 13 -5 48 -20 79 -35 350 -159 806 -200 1163 -102 142 39 165 47 230 73 174 70 316 155 480 286 112 89 210 191 302 314 81 108 105 147 167 270 84 168 117 269 165 495 22 102 31 379 17 510 -40 376 -209 736 -478 1013 -95 98 -235 220 -281 244 -19 10 -45 27 -57 38 -20 17 -262 143 -320 167 -124 49 -310 97 -440 113 -121 15 -340 17 -450 4z m483 -54 c203 -33 444 -112 562 -185 8 -5 44 -26 80 -46 163 -93 361 -264 495 -429 89 -109 225 -345 255 -442 5 -15 18 -53 29 -83 42 -108 77 -307 88 -485 9 -153 -26 -391 -87 -600 -19 -65 -44 -124 -94 -225 -136 -273 -344 -513 -587 -678 -69 -47 -200 -123 -239 -138 -8 -3 -28 -12 -45 -19 -88 -39 -251 -93 -350 -115 -209 -47 -646 -32 -840 30 -314 100 -563 249 -775 462 -234 235 -405 561 -472 898 -30 152 -30 457 0 620 47 260 122 450 258 654 21 32 44 66 49 75 26 42 104 134 178 210 75 76 235 211 252 211 3 0 21 11 38 24 35 27 118 73 187 106 25 12 53 26 63 31 73 39 254 93 402 119 133 24 417 26 553 5z"></path> <path d="M1754 4796 c-3 -8 -1 -45 4 -83 12 -85 64 -201 125 -281 50 -64 185 -195 260 -251 26 -19 47 -40 47 -46 0 -6 -32 -37 -71 -70 -232 -193 -359 -408 -359 -608 0 -102 37 -223 95 -313 45 -68 192 -218 283 -289 34 -26 62 -53 62 -59 -1 -6 -26 -29 -58 -51 -138 -98 -314 -307 -357 -426 -9 -24 -25 -82 -35 -129 -18 -82 -18 -86 0 -104 10 -10 22 -16 28 -13 5 4 11 44 14 90 3 46 10 92 16 103 5 10 20 42 32 69 23 50 67 118 105 164 73 89 294 276 420 357 57 36 290 232 346 290 66 70 114 152 134 229 27 103 15 173 -48 281 -35 59 -195 227 -253 264 -16 10 -44 32 -63 48 l-33 28 48 41 c76 62 83 65 113 37 14 -13 60 -52 101 -87 120 -102 224 -230 262 -322 42 -102 48 -128 48 -208 0 -184 -88 -339 -290 -518 -67 -58 -286 -230 -343 -269 -12 -8 -38 -28 -59 -45 -20 -16 -57 -46 -83 -65 -92 -69 -202 -196 -256 -296 -25 -46 -41 -155 -24 -173 21 -22 35 -3 35 48 0 85 2 86 203 83 178 -3 203 1 177 33 -10 12 -44 15 -171 15 -87 0 -160 4 -163 8 -2 4 13 31 35 60 l40 52 92 2 c90 1 129 3 155 6 10 2 10 7 2 22 -9 17 -21 20 -85 20 -45 0 -77 5 -81 12 -8 12 68 85 128 124 20 13 39 28 43 34 7 11 45 14 45 2 0 -4 43 -38 95 -76 61 -45 95 -76 95 -88 0 -17 -6 -18 -62 -12 -47 4 -68 2 -82 -9 -39 -29 -10 -39 105 -36 l109 4 34 -35 c19 -19 38 -47 41 -62 l7 -27 -148 -3 c-147 -3 -149 -3 -152 -26 l-3 -23 167 2 c181 1 183 0 185 -56 3 -68 3 -70 32 -73 24 -3 27 0 27 27 0 41 -42 153 -76 204 -35 52 -206 221 -254 252 -19 12 -41 30 -49 39 -7 9 -20 16 -27 16 -17 0 -18 21 -1 41 20 25 94 79 107 79 13 0 121 -82 183 -139 20 -19 50 -46 65 -60 40 -37 114 -137 144 -196 41 -77 58 -135 60 -200 3 -58 4 -60 31 -63 l28 -3 -6 48 c-19 132 -54 221 -130 328 -45 63 -175 193 -260 260 -53 42 -66 56 -62 66 1 3 40 36 87 74 133 106 230 218 292 340 59 114 75 220 52 344 -9 47 -20 90 -25 96 -5 5 -9 15 -9 23 0 28 -83 152 -153 229 -39 43 -108 107 -153 143 -46 36 -83 72 -83 81 -1 9 25 36 57 60 75 57 231 213 264 264 46 73 77 142 97 218 23 84 19 150 -8 145 -12 -2 -18 -20 -23 -65 -11 -103 -56 -212 -123 -301 -48 -63 -120 -138 -164 -170 -20 -15 -59 -45 -87 -67 -28 -22 -61 -47 -74 -55 -12 -8 -51 -36 -86 -62 -35 -27 -67 -48 -71 -48 -5 0 -19 -10 -33 -22 -14 -13 -50 -44 -80 -69 -223 -189 -330 -350 -330 -497 0 -55 29 -146 66 -203 37 -59 172 -190 277 -268 31 -24 57 -49 57 -56 0 -14 -100 -85 -119 -85 -24 0 -170 117 -257 205 -71 72 -99 109 -129 171 -72 147 -77 298 -16 445 78 186 178 284 601 592 219 160 320 267 386 412 29 63 30 138 2 143 -12 2 -18 -7 -23 -37 -4 -23 -13 -42 -23 -46 -9 -4 -87 -6 -173 -6 -136 1 -158 -1 -163 -15 -3 -9 -4 -20 0 -25 3 -5 74 -9 158 -9 84 0 156 -3 159 -7 9 -8 -38 -92 -64 -114 -15 -14 -36 -16 -134 -11 -101 4 -115 3 -115 -11 0 -20 24 -26 110 -29 49 -2 65 -7 67 -18 1 -12 -63 -75 -150 -145 -25 -21 -67 -45 -77 -45 -6 0 -17 6 -24 13 -7 6 -27 23 -45 37 -18 14 -58 46 -89 72 -32 26 -60 48 -64 48 -5 0 -8 9 -8 20 0 18 7 20 68 22 37 0 78 0 91 -1 34 -3 52 6 45 24 -5 12 -28 15 -133 15 -69 0 -131 4 -137 8 -19 12 -74 104 -68 113 3 5 79 9 169 9 90 0 166 4 169 8 2 4 1 14 -4 22 -7 11 -44 14 -182 15 l-173 0 -15 48 c-10 32 -20 46 -30 44 -26 -5 -14 -99 23 -176 24 -51 55 -89 137 -171 59 -58 134 -125 168 -150 34 -24 62 -47 62 -50 -1 -16 -98 -90 -119 -90 -11 0 -60 28 -71 40 -3 3 -32 27 -65 52 -63 48 -138 123 -195 198 -69 89 -86 127 -113 253 -14 65 -25 97 -34 97 -8 0 -16 -6 -19 -14z m696 -837 c0 -13 68 -92 86 -99 7 -3 40 -27 74 -53 57 -45 61 -50 46 -65 -12 -12 -36 -16 -106 -15 -81 0 -90 -2 -90 -18 0 -24 21 -29 159 -32 l114 -2 19 -30 c30 -50 37 -69 27 -80 -6 -5 -83 -10 -182 -10 -169 0 -172 0 -175 -22 -3 -19 3 -22 60 -28 35 -3 122 -5 193 -3 l130 3 3 -53 c5 -82 4 -82 -179 -80 -164 2 -188 -3 -175 -37 5 -15 23 -17 158 -14 115 3 152 1 155 -9 5 -14 -63 -111 -80 -113 -7 -1 -60 -1 -119 1 -117 2 -133 -2 -118 -29 8 -16 20 -18 90 -15 100 5 112 -8 54 -63 -63 -59 -161 -133 -176 -133 -8 0 -25 11 -38 25 -12 13 -41 37 -64 52 -22 15 -45 33 -51 39 -5 6 -25 21 -42 33 -56 38 -44 50 55 53 69 2 87 6 87 18 0 12 -21 16 -119 18 l-120 3 -33 37 c-39 43 -50 71 -33 82 7 4 74 7 149 6 148 -2 161 -1 161 19 0 24 -19 27 -178 31 -111 3 -158 7 -164 16 -12 20 -9 94 5 106 7 5 71 10 147 10 74 0 153 0 175 1 l40 2 -22 18 c-18 15 -46 19 -173 23 -83 3 -154 8 -157 12 -3 3 7 30 23 61 l29 55 132 0 c134 0 157 6 132 37 -11 13 -30 15 -106 11 -119 -7 -125 4 -46 79 38 36 68 57 90 60 25 4 33 11 33 27 0 28 9 40 45 58 36 19 75 22 75 7z"></path>          </g> </svg>