<?xml version="1.0" encoding="UTF-8"?>
<svg xmlns="http://www.w3.org/2000/svg" viewBox="0 0 960 1360" width="1920" height="2720">

<rect width="960" height="1360" fill="#0c0c0c"/>
<radialGradient id="vig" cx="50%" cy="50%" r="75%">
  <stop offset="0%" stop-color="#181818"/>
  <stop offset="100%" stop-color="#070707"/>
</radialGradient>
<rect width="960" height="1360" fill="url(#vig)"/>
<g stroke="#fff" stroke-opacity="0.022" stroke-width="1">
<line x1="0" y1="20" x2="960" y2="20"/><line x1="0" y1="40" x2="960" y2="40"/><line x1="0" y1="60" x2="960" y2="60"/><line x1="0" y1="80" x2="960" y2="80"/><line x1="0" y1="100" x2="960" y2="100"/><line x1="0" y1="120" x2="960" y2="120"/><line x1="0" y1="140" x2="960" y2="140"/><line x1="0" y1="160" x2="960" y2="160"/><line x1="0" y1="180" x2="960" y2="180"/><line x1="0" y1="200" x2="960" y2="200"/><line x1="0" y1="220" x2="960" y2="220"/><line x1="0" y1="240" x2="960" y2="240"/><line x1="0" y1="260" x2="960" y2="260"/><line x1="0" y1="280" x2="960" y2="280"/><line x1="0" y1="300" x2="960" y2="300"/><line x1="0" y1="320" x2="960" y2="320"/><line x1="0" y1="340" x2="960" y2="340"/><line x1="0" y1="360" x2="960" y2="360"/><line x1="0" y1="380" x2="960" y2="380"/><line x1="0" y1="400" x2="960" y2="400"/><line x1="0" y1="420" x2="960" y2="420"/><line x1="0" y1="440" x2="960" y2="440"/><line x1="0" y1="460" x2="960" y2="460"/><line x1="0" y1="480" x2="960" y2="480"/><line x1="0" y1="500" x2="960" y2="500"/><line x1="0" y1="520" x2="960" y2="520"/><line x1="0" y1="540" x2="960" y2="540"/><line x1="0" y1="560" x2="960" y2="560"/><line x1="0" y1="580" x2="960" y2="580"/><line x1="0" y1="600" x2="960" y2="600"/><line x1="0" y1="620" x2="960" y2="620"/><line x1="0" y1="640" x2="960" y2="640"/><line x1="0" y1="660" x2="960" y2="660"/><line x1="0" y1="680" x2="960" y2="680"/><line x1="0" y1="700" x2="960" y2="700"/><line x1="0" y1="720" x2="960" y2="720"/><line x1="0" y1="740" x2="960" y2="740"/><line x1="0" y1="760" x2="960" y2="760"/><line x1="0" y1="780" x2="960" y2="780"/><line x1="0" y1="800" x2="960" y2="800"/><line x1="0" y1="820" x2="960" y2="820"/><line x1="0" y1="840" x2="960" y2="840"/><line x1="0" y1="860" x2="960" y2="860"/><line x1="0" y1="880" x2="960" y2="880"/><line x1="0" y1="900" x2="960" y2="900"/><line x1="0" y1="920" x2="960" y2="920"/><line x1="0" y1="940" x2="960" y2="940"/><line x1="0" y1="960" x2="960" y2="960"/><line x1="0" y1="980" x2="960" y2="980"/><line x1="0" y1="1000" x2="960" y2="1000"/><line x1="0" y1="1020" x2="960" y2="1020"/><line x1="0" y1="1040" x2="960" y2="1040"/><line x1="0" y1="1060" x2="960" y2="1060"/><line x1="0" y1="1080" x2="960" y2="1080"/><line x1="0" y1="1100" x2="960" y2="1100"/><line x1="0" y1="1120" x2="960" y2="1120"/><line x1="0" y1="1140" x2="960" y2="1140"/><line x1="0" y1="1160" x2="960" y2="1160"/><line x1="0" y1="1180" x2="960" y2="1180"/><line x1="0" y1="1200" x2="960" y2="1200"/><line x1="0" y1="1220" x2="960" y2="1220"/><line x1="0" y1="1240" x2="960" y2="1240"/><line x1="0" y1="1260" x2="960" y2="1260"/><line x1="0" y1="1280" x2="960" y2="1280"/><line x1="0" y1="1300" x2="960" y2="1300"/><line x1="0" y1="1320" x2="960" y2="1320"/><line x1="0" y1="1340" x2="960" y2="1340"/>
</g>

<!-- ═══════════════════════════════════════ -->
<!--  HUMANIDADE                             -->
<!-- ═══════════════════════════════════════ -->
<rect x="0" y="0" width="960" height="2" fill="#303030"/>
<text x="480" y="66" font-family="Impact,Arial Narrow,Arial,sans-serif"
  font-size="52" font-style="italic" fill="white" text-anchor="middle" letter-spacing="10">HUMANIDADE</text>
<rect x="0" y="82" width="960" height="2" fill="#303030"/>

<!-- Grid: cols 160 480 800 | rows 182 350 518 -->

<!-- ───────── EVENTO MARCANTE ───────── (160,182) -->
<g transform="translate(160,182)">
  <circle r="60" fill="#161616" stroke="#404040" stroke-width="2"/>
  <!-- horizontal timeline -->
  <rect x="-38" y="10" width="76" height="7" rx="3.5" fill="white"/>
  <!-- tick marks -->
  <rect x="-28" y="3" width="5" height="14" rx="2" fill="white"/>
  <rect x="-10" y="3" width="5" height="14" rx="2" fill="white"/>
  <rect x="8"  y="3" width="5" height="14" rx="2" fill="white"/>
  <rect x="26" y="3" width="5" height="14" rx="2" fill="white"/>
  <!-- bold lightning bolt centred on middle tick, pointing down to it -->
  <polygon points="6,-38  -5,-10  1,-10  -7,6  14,-8  4,-8  15,-38" fill="white"/>
  <!-- impact burst lines -->
  <line x1="-16" y1="4" x2="-24" y2="-4" stroke="white" stroke-width="2.5" stroke-linecap="round"/>
  <line x1="22"  y1="4" x2="30"  y2="-4" stroke="white" stroke-width="2.5" stroke-linecap="round"/>
</g>
<text x="160" y="260" font-family="Impact,Arial Narrow,Arial,sans-serif"
  font-size="14" fill="white" text-anchor="middle" letter-spacing="2">EVENTO MARCANTE</text>

<!-- ───────── RELAÇÃO MARCANTE ───────── (480,182) -->
<g transform="translate(480,182)">
  <circle r="60" fill="#161616" stroke="#404040" stroke-width="2"/>
  <!-- left person -->
  <circle cx="-18" cy="-22" r="10" fill="white"/>
  <path d="M-30,-6 Q-30,14 -18,14 Q-6,14 -6,-6 Q-6,-14 -18,-14 Q-30,-14 -30,-6Z" fill="white"/>
  <!-- right person -->
  <circle cx="18" cy="-22" r="10" fill="white"/>
  <path d="M6,-6 Q6,14 18,14 Q30,14 30,-6 Q30,-14 18,-14 Q6,-14 6,-6Z" fill="white"/>
  <!-- negative gap between bodies -->
  <rect x="-5" y="-14" width="10" height="28" fill="#161616"/>
  <!-- heart centred between -->
  <path d="M0,-8 C-2,-14 -11,-14 -11,-7 C-11,-2 0,6 0,6 C0,6 11,-2 11,-7 C11,-14 2,-14 0,-8Z" fill="white"/>
  <!-- ground line -->
  <rect x="-34" y="28" width="68" height="5" rx="2" fill="white"/>
</g>
<text x="480" y="260" font-family="Impact,Arial Narrow,Arial,sans-serif"
  font-size="14" fill="white" text-anchor="middle" letter-spacing="2">RELAÇÃO MARCANTE</text>

<!-- ───────── MISSÃO ───────── (800,182) -->
<g transform="translate(800,182)">
  <circle r="60" fill="#161616" stroke="#404040" stroke-width="2"/>
  <!-- crosshair target -->
  <circle r="30" fill="none" stroke="white" stroke-width="3"/>
  <circle r="18" fill="none" stroke="white" stroke-width="2.5"/>
  <circle r="6"  fill="white"/>
  <!-- cross gaps -->
  <line x1="-48" y1="0" x2="-32" y2="0" stroke="white" stroke-width="3" stroke-linecap="round"/>
  <line x1="32"  y1="0" x2="48"  y2="0" stroke="white" stroke-width="3" stroke-linecap="round"/>
  <line x1="0" y1="-48" x2="0" y2="-32" stroke="white" stroke-width="3" stroke-linecap="round"/>
  <line x1="0" y1="32"  x2="0" y2="48"  stroke="white" stroke-width="3" stroke-linecap="round"/>
</g>
<text x="800" y="260" font-family="Impact,Arial Narrow,Arial,sans-serif"
  font-size="14" fill="white" text-anchor="middle" letter-spacing="2">MISSÃO</text>

<!-- ───────── PERSONALIDADE ───────── (160,350) -->
<g transform="translate(160,350)">
  <circle r="60" fill="#161616" stroke="#404040" stroke-width="2"/>
  <!-- face oval clipped in half by centre line -->
  <!-- left half: comedy smile -->
  <path d="M0,-32 Q-28,-32 -28,0 Q-28,32 0,32 Z" fill="white"/>
  <!-- right half: tragedy frown -->
  <path d="M0,-32 Q28,-32 28,0 Q28,32 0,32 Z" fill="white"/>
  <!-- centre divider -->
  <rect x="-2" y="-34" width="4" height="68" fill="#161616"/>
  <!-- left eye (happy arch) -->
  <path d="M-20,-14 Q-14,-20 -8,-14" fill="none" stroke="#161616" stroke-width="3" stroke-linecap="round"/>
  <!-- left mouth (smile) -->
  <path d="M-22,10 Q-14,22 -6,10" fill="none" stroke="#161616" stroke-width="3" stroke-linecap="round"/>
  <!-- right eye (sad arch) -->
  <path d="M8,-20 Q14,-14 20,-20" fill="none" stroke="#161616" stroke-width="3" stroke-linecap="round"/>
  <!-- right mouth (frown) -->
  <path d="M6,18 Q14,8 22,18" fill="none" stroke="#161616" stroke-width="3" stroke-linecap="round"/>
</g>
<text x="160" y="428" font-family="Impact,Arial Narrow,Arial,sans-serif"
  font-size="14" fill="white" text-anchor="middle" letter-spacing="2">PERSONALIDADE</text>

<!-- ───────── POSSES ───────── (480,350) -->
<g transform="translate(480,350)">
  <circle r="60" fill="#161616" stroke="#404040" stroke-width="2"/>
  <!-- coin bag -->
  <ellipse cx="0" cy="14" rx="26" ry="22" fill="white"/>
  <!-- bag tie/neck -->
  <rect x="-10" y="-10" width="20" height="14" rx="4" fill="white"/>
  <!-- bag knot -->
  <ellipse cx="0" cy="-14" rx="8" ry="6" fill="white"/>
  <!-- $ symbol on bag -->
  <text x="0" y="22" font-family="Impact,Arial,sans-serif" font-size="26"
    fill="#161616" text-anchor="middle" font-style="italic">$</text>
  <!-- shine glint -->
  <line x1="-12" y1="4" x2="-18" y2="-2" stroke="white" stroke-width="3" stroke-linecap="round" stroke-opacity="0.5"/>
</g>
<text x="480" y="428" font-family="Impact,Arial Narrow,Arial,sans-serif"
  font-size="14" fill="white" text-anchor="middle" letter-spacing="2">POSSES</text>

<!-- ───────── ROTINA ───────── (800,350) -->
<g transform="translate(800,350)">
  <circle r="60" fill="#161616" stroke="#404040" stroke-width="2"/>
  <!-- clock face -->
  <circle r="28" fill="none" stroke="white" stroke-width="3"/>
  <!-- 4 bold hour markers -->
  <rect x="-3" y="-28" width="6" height="9" rx="3" fill="white"/>
  <rect x="-3" y="19"  width="6" height="9" rx="3" fill="white"/>
  <rect x="-28" y="-3" width="9" height="6" rx="3" fill="white"/>
  <rect x="19"  y="-3" width="9" height="6" rx="3" fill="white"/>
  <!-- hour hand pointing to 12 -->
  <line x1="0" y1="0" x2="0" y2="-20" stroke="white" stroke-width="4" stroke-linecap="round"/>
  <!-- minute hand pointing to 3 -->
  <line x1="0" y1="0" x2="16" y2="0" stroke="white" stroke-width="3" stroke-linecap="round"/>
  <!-- centre dot -->
  <circle r="4" fill="white"/>
  <!-- circular refresh arrow outside clock -->
  <path d="M0,-44 A44,44 0 1,1 -42,14" fill="none" stroke="white" stroke-width="3" stroke-linecap="round"/>
  <!-- arrowhead -->
  <polygon points="-42,14 -54,6 -36,0" fill="white"/>
</g>
<text x="800" y="428" font-family="Impact,Arial Narrow,Arial,sans-serif"
  font-size="14" fill="white" text-anchor="middle" letter-spacing="2">ROTINA</text>

<!-- ───────── CONFLITO ───────── (160,518) -->
<g transform="translate(160,518)">
  <circle r="60" fill="#161616" stroke="#404040" stroke-width="2"/>
  <!-- sword 1: top-left blade to bottom-right pommel -->
  <line x1="-30" y1="-30" x2="30" y2="30" stroke="white" stroke-width="5" stroke-linecap="square"/>
  <!-- guard 1 (horizontal bar near top-left) -->
  <line x1="-22" y1="-16" x2="-34" y2="-28" stroke="white" stroke-width="4" stroke-linecap="round"/>
  <line x1="-22" y1="-16" x2="-10" y2="-28" stroke="white" stroke-width="4" stroke-linecap="round"/>
  <!-- pommel 1 -->
  <circle cx="30" cy="30" r="6" fill="white"/>
  <!-- sword 2: top-right blade to bottom-left pommel -->
  <line x1="30" y1="-30" x2="-30" y2="30" stroke="white" stroke-width="5" stroke-linecap="square"/>
  <!-- guard 2 -->
  <line x1="22" y1="-16" x2="34" y2="-28" stroke="white" stroke-width="4" stroke-linecap="round"/>
  <line x1="22" y1="-16" x2="10" y2="-28" stroke="white" stroke-width="4" stroke-linecap="round"/>
  <!-- pommel 2 -->
  <circle cx="-30" cy="30" r="6" fill="white"/>
  <!-- impact burst -->
  <line x1="0" y1="-10" x2="0"  y2="-20" stroke="white" stroke-width="2.5" stroke-linecap="round"/>
  <line x1="8" y1="-6"  x2="16" y2="-14" stroke="white" stroke-width="2.5" stroke-linecap="round"/>
  <line x1="-8" y1="-6" x2="-16" y2="-14" stroke="white" stroke-width="2.5" stroke-linecap="round"/>
</g>
<text x="160" y="596" font-family="Impact,Arial Narrow,Arial,sans-serif"
  font-size="14" fill="white" text-anchor="middle" letter-spacing="2">CONFLITO</text>

<!-- ───────── TREINAMENTO ───────── (480,518) -->
<g transform="translate(480,518)">
  <circle r="60" fill="#161616" stroke="#404040" stroke-width="2"/>
  <!-- barbell bar -->
  <rect x="-38" y="-5" width="76" height="10" rx="5" fill="white"/>
  <!-- left outer plate -->
  <rect x="-50" y="-22" width="14" height="44" rx="5" fill="white"/>
  <!-- left inner plate -->
  <rect x="-38" y="-16" width="8"  height="32" rx="3" fill="white"/>
  <!-- right inner plate -->
  <rect x="30"  y="-16" width="8"  height="32" rx="3" fill="white"/>
  <!-- right outer plate -->
  <rect x="36"  y="-22" width="14" height="44" rx="5" fill="white"/>
  <!-- collar cuts -->
  <rect x="-28" y="-5" width="4" height="10" rx="1" fill="#161616"/>
  <rect x="24"  y="-5" width="4" height="10" rx="1" fill="#161616"/>
</g>
<text x="480" y="596" font-family="Impact,Arial Narrow,Arial,sans-serif"
  font-size="14" fill="white" text-anchor="middle" letter-spacing="2">TREINAMENTO</text>

<!-- ───────── TERRITÓRIO ───────── (800,518) -->
<g transform="translate(800,518)">
  <circle r="60" fill="#161616" stroke="#404040" stroke-width="2"/>
  <!-- map pin: circle top + teardrop point -->
  <circle cx="0" cy="-14" r="22" fill="white"/>
  <!-- hole in pin -->
  <circle cx="0" cy="-14" r="10" fill="#161616"/>
  <!-- pin point -->
  <polygon points="-12,-4 12,-4 0,36" fill="white"/>
  <!-- three concentric arcs = "location waves" around pin -->
  <path d="M-36,-28 Q-44,-14 -36,-2" fill="none" stroke="white" stroke-width="3" stroke-linecap="round"/>
  <path d="M36,-28 Q44,-14 36,-2"    fill="none" stroke="white" stroke-width="3" stroke-linecap="round"/>
</g>
<text x="800" y="596" font-family="Impact,Arial Narrow,Arial,sans-serif"
  font-size="14" fill="white" text-anchor="middle" letter-spacing="2">TERRITÓRIO</text>

<!-- section rule -->
<rect x="60" y="620" width="840" height="2" fill="#303030"/>

<!-- ═══════════════════════════════════════ -->
<!--  MUTAÇÃO                                -->
<!-- ═══════════════════════════════════════ -->
<text x="480" y="672" font-family="Impact,Arial Narrow,Arial,sans-serif"
  font-size="52" font-style="italic" fill="white" text-anchor="middle" letter-spacing="10">MUTAÇÃO</text>
<rect x="0" y="686" width="960" height="2" fill="#303030"/>

<!-- Grid: cols 160 480 800 | rows 778 946 1114  + row4 cols 320 640 at y=1282 -->

<!-- ───────── ADAPTAÇÃO ───────── (160,778) -->
<g transform="translate(160,778)">
  <circle r="60" fill="#161616" stroke="#404040" stroke-width="2"/>
  <!-- clean double helix: two S-curves -->
  <path d="M-8,-42 C12,-28 12,-14 -8,0 C12,14 12,28 -8,42"
    fill="none" stroke="white" stroke-width="4" stroke-linecap="round"/>
  <path d="M8,-42 C-12,-28 -12,-14 8,0 C-12,14 -12,28 8,42"
    fill="none" stroke="white" stroke-width="4" stroke-linecap="round"/>
  <!-- rungs -->
  <line x1="-8" y1="-30" x2="8" y2="-30" stroke="white" stroke-width="3" stroke-linecap="round"/>
  <line x1="-6" y1="-14" x2="6" y2="-14" stroke="white" stroke-width="3" stroke-linecap="round"/>
  <line x1="-8" y1="0"   x2="8" y2="0"   stroke="white" stroke-width="3" stroke-linecap="round"/>
  <line x1="-6" y1="14"  x2="6" y2="14"  stroke="white" stroke-width="3" stroke-linecap="round"/>
  <line x1="-8" y1="30"  x2="8" y2="30"  stroke="white" stroke-width="3" stroke-linecap="round"/>
  <!-- transform arrow: right side, pointing down/new form -->
  <line x1="28" y1="-16" x2="28" y2="16"  stroke="white" stroke-width="3" stroke-linecap="round"/>
  <polygon points="28,22 22,12 34,12" fill="white"/>
  <!-- top mark (old) -->
  <circle cx="28" cy="-22" r="5" fill="white"/>
</g>
<text x="160" y="856" font-family="Impact,Arial Narrow,Arial,sans-serif"
  font-size="14" fill="white" text-anchor="middle" letter-spacing="2">ADAPTAÇÃO</text>

<!-- ───────── BASTIÃO ───────── (480,778) -->
<g transform="translate(480,778)">
  <circle r="60" fill="#161616" stroke="#404040" stroke-width="2"/>
  <!-- castle silhouette: three towers as one solid shape -->
  <!-- main body -->
  <rect x="-28" y="2" width="56" height="36" rx="2" fill="white"/>
  <!-- left merlon -->
  <rect x="-28" y="-22" width="14" height="26" rx="2" fill="white"/>
  <!-- centre merlon -->
  <rect x="-8"  y="-26" width="16" height="30" rx="2" fill="white"/>
  <!-- right merlon -->
  <rect x="14"  y="-22" width="14" height="26" rx="2" fill="white"/>
  <!-- gate arch -->
  <path d="M-9,38 L-9,16 Q-9,6 0,6 Q9,6 9,16 L9,38 Z" fill="#161616"/>
  <!-- arrow slit window -->
  <rect x="-2" y="-10" width="4" height="14" rx="1" fill="#161616"/>
  <rect x="-6" y="-4"  width="12" height="4"  rx="1" fill="#161616"/>
</g>
<text x="480" y="856" font-family="Impact,Arial Narrow,Arial,sans-serif"
  font-size="14" fill="white" text-anchor="middle" letter-spacing="2">BASTIÃO</text>

<!-- ───────── CONJURAÇÃO ───────── (800,778) -->
<g transform="translate(800,778)">
  <circle r="60" fill="#161616" stroke="#404040" stroke-width="2"/>
  <!-- summoning circle: outer ring -->
  <circle r="38" fill="none" stroke="white" stroke-width="2.5"/>
  <!-- inner ring -->
  <circle r="26" fill="none" stroke="white" stroke-width="2"/>
  <!-- pentagram inscribed in inner ring (r=26) -->
  <!-- 5 points at angles: -90, -90+72, -90+144, -90+216, -90+288 degrees -->
  <!-- computed: (0,-26),(24.7,8.0),(15.3,21.2),(-15.3,21.2),(-24.7,8.0) -->
  <polygon points="0,-26 15.3,21.2 -24.7,8.0 24.7,8.0 -15.3,21.2"
    fill="none" stroke="white" stroke-width="2.5" stroke-linejoin="round"/>
  <!-- energy dots on outer ring at cardinal points -->
  <circle cx="0"   cy="-38" r="5" fill="white"/>
  <circle cx="38"  cy="0"   r="5" fill="white"/>
  <circle cx="0"   cy="38"  r="5" fill="white"/>
  <circle cx="-38" cy="0"   r="5" fill="white"/>
  <!-- glowing centre -->
  <circle r="8" fill="white"/>
  <circle r="4" fill="#161616"/>
</g>
<text x="800" y="856" font-family="Impact,Arial Narrow,Arial,sans-serif"
  font-size="14" fill="white" text-anchor="middle" letter-spacing="2">CONJURAÇÃO</text>

<!-- ───────── DESTINO ───────── (160,946) -->
<g transform="translate(160,946)">
  <circle r="60" fill="#161616" stroke="#404040" stroke-width="2"/>
  <!-- scales of fate, compact -->
  <!-- pivot pole -->
  <rect x="-3" y="-44" width="6" height="50" rx="3" fill="white"/>
  <!-- beam -->
  <rect x="-36" y="-20" width="72" height="7" rx="3.5" fill="white"/>
  <!-- pivot circle -->
  <circle cx="0" cy="-18" r="7" fill="white"/>
  <circle cx="0" cy="-18" r="3" fill="#161616"/>
  <!-- left chain + pan -->
  <line x1="-36" y1="-17" x2="-36" y2="0"  stroke="white" stroke-width="2.5"/>
  <path d="M-50,0 Q-50,10 -36,10 Q-22,10 -22,0 Z" fill="white"/>
  <!-- right chain + pan (slightly lower = fate tipping) -->
  <line x1="36" y1="-17" x2="36" y2="8"  stroke="white" stroke-width="2.5"/>
  <path d="M22,8 Q22,18 36,18 Q50,18 50,8 Z" fill="white"/>
  <!-- stars above -->
  <circle cx="-14" cy="-50" r="4" fill="white"/>
  <circle cx="0"   cy="-56" r="5" fill="white"/>
  <circle cx="14"  cy="-50" r="4" fill="white"/>
  <line x1="-14" y1="-50" x2="0"  y2="-56" stroke="white" stroke-width="1.5"/>
  <line x1="14"  y1="-50" x2="0"  y2="-56" stroke="white" stroke-width="1.5"/>
  <line x1="-14" y1="-50" x2="14" y2="-50" stroke="white" stroke-width="1.5"/>
</g>
<text x="160" y="1024" font-family="Impact,Arial Narrow,Arial,sans-serif"
  font-size="14" fill="white" text-anchor="middle" letter-spacing="2">DESTINO</text>

<!-- ───────── ADIVINHAÇÃO ───────── (480,946) -->
<g transform="translate(480,946)">
  <circle r="60" fill="#161616" stroke="#404040" stroke-width="2"/>
  <!-- crystal ball body -->
  <circle r="30" fill="none" stroke="white" stroke-width="3"/>
  <!-- shimmer arc inside -->
  <path d="M-18,-18 Q0,-30 18,-18" fill="none" stroke="white" stroke-width="2" stroke-linecap="round" opacity="0.6"/>
  <!-- eye of fate inside ball -->
  <path d="M-18,0 C-8,-14 8,-14 18,0 C8,14 -8,14 -18,0Z" fill="white"/>
  <circle r="7"   fill="#161616"/>
  <circle r="3.5" fill="white"/>
  <!-- base stand -->
  <rect x="-24" y="30" width="48" height="9" rx="4" fill="white"/>
  <rect x="-16" y="26" width="32" height="6" rx="3" fill="white"/>
</g>
<text x="480" y="1024" font-family="Impact,Arial Narrow,Arial,sans-serif"
  font-size="14" fill="white" text-anchor="middle" letter-spacing="2">ADIVINHAÇÃO</text>

<!-- ───────── ENCLAVE ───────── (800,946) -->
<g transform="translate(800,946)">
  <circle r="60" fill="#161616" stroke="#404040" stroke-width="2"/>
  <!-- outer hexagon -->
  <polygon points="0,-36 31,-18 31,18 0,36 -31,18 -31,-18"
    fill="none" stroke="white" stroke-width="3" stroke-linejoin="round"/>
  <!-- inner hexagon -->
  <polygon points="0,-20 17,-10 17,10 0,20 -17,10 -17,-10"
    fill="none" stroke="white" stroke-width="2" stroke-linejoin="round"/>
  <!-- three person-dot nodes connected: community -->
  <circle cx="0"   cy="-10" r="7" fill="white"/>
  <circle cx="-10" cy="6"  r="7" fill="white"/>
  <circle cx="10"  cy="6"  r="7" fill="white"/>
  <line x1="0"   y1="-10" x2="-10" y2="6"  stroke="white" stroke-width="3"/>
  <line x1="0"   y1="-10" x2="10"  y2="6"  stroke="white" stroke-width="3"/>
  <line x1="-10" y1="6"   x2="10"  y2="6"  stroke="white" stroke-width="3"/>
</g>
<text x="800" y="1024" font-family="Impact,Arial Narrow,Arial,sans-serif"
  font-size="14" fill="white" text-anchor="middle" letter-spacing="2">ENCLAVE</text>

<!-- ───────── EXPRESSÃO ───────── (160,1114) -->
<g transform="translate(160,1114)">
  <circle r="60" fill="#161616" stroke="#404040" stroke-width="2"/>
  <!-- stylised starburst: alternating long/short rays, filled triangles -->
  <!-- 8 rays, long at 0°45°90°... alternating -->
  <!-- long ray triangles -->
  <polygon points="0,0 -5,-12 5,-12"  fill="white" transform="rotate(0)   translate(0,-20)"/>
  <polygon points="0,0 -5,-12 5,-12"  fill="white" transform="rotate(45)  translate(0,-20)"/>
  <polygon points="0,0 -5,-12 5,-12"  fill="white" transform="rotate(90)  translate(0,-20)"/>
  <polygon points="0,0 -5,-12 5,-12"  fill="white" transform="rotate(135) translate(0,-20)"/>
  <polygon points="0,0 -5,-12 5,-12"  fill="white" transform="rotate(180) translate(0,-20)"/>
  <polygon points="0,0 -5,-12 5,-12"  fill="white" transform="rotate(225) translate(0,-20)"/>
  <polygon points="0,0 -5,-12 5,-12"  fill="white" transform="rotate(270) translate(0,-20)"/>
  <polygon points="0,0 -5,-12 5,-12"  fill="white" transform="rotate(315) translate(0,-20)"/>
  <!-- short square dots between rays -->
  <circle cx="0" cy="-40" r="5" fill="white"/>
  <circle cx="28" cy="-28" r="5" fill="white"/>
  <circle cx="40" cy="0"   r="5" fill="white"/>
  <circle cx="28" cy="28"  r="5" fill="white"/>
  <circle cx="0"  cy="40"  r="5" fill="white"/>
  <circle cx="-28" cy="28" r="5" fill="white"/>
  <circle cx="-40" cy="0"  r="5" fill="white"/>
  <circle cx="-28" cy="-28" r="5" fill="white"/>
  <!-- centre disc -->
  <circle r="16" fill="white"/>
  <circle r="8"  fill="#161616"/>
  <circle r="4"  fill="white"/>
</g>
<text x="160" y="1192" font-family="Impact,Arial Narrow,Arial,sans-serif"
  font-size="14" fill="white" text-anchor="middle" letter-spacing="2">EXPRESSÃO</text>

<!-- ───────── FAMILIAR ───────── (480,1114) -->
<g transform="translate(480,1114)">
  <circle r="60" fill="#161616" stroke="#404040" stroke-width="2"/>
  <!-- clean raven side silhouette, fits in ±50 -->
  <!-- body -->
  <ellipse cx="4" cy="8" rx="22" ry="14" fill="white"/>
  <!-- head -->
  <circle cx="26" cy="-8" r="13" fill="white"/>
  <!-- beak -->
  <polygon points="38,-10 52,-8 38,-4" fill="white"/>
  <!-- eye -->
  <circle cx="30" cy="-10" r="4" fill="#161616"/>
  <circle cx="31" cy="-11" r="1.5" fill="white"/>
  <!-- wing fold lines -->
  <path d="M-16,4 C-4,-8 8,-10 20,-4" fill="none" stroke="#161616" stroke-width="2.5" stroke-linecap="round"/>
  <path d="M-16,8 C-4,2 8,0 18,4" fill="none" stroke="#161616" stroke-width="2" stroke-linecap="round"/>
  <!-- tail feathers -->
  <polygon points="-18,8 -46,4  -20,16" fill="white"/>
  <polygon points="-18,10 -44,16 -20,22" fill="white"/>
  <!-- feet/perch -->
  <line x1="4"  y1="22" x2="0"  y2="36" stroke="white" stroke-width="3.5" stroke-linecap="round"/>
  <line x1="12" y1="22" x2="16" y2="36" stroke="white" stroke-width="3.5" stroke-linecap="round"/>
  <line x1="0"  y1="36" x2="-10" y2="42" stroke="white" stroke-width="2.5" stroke-linecap="round"/>
  <line x1="0"  y1="36" x2="4"   y2="44" stroke="white" stroke-width="2.5" stroke-linecap="round"/>
  <line x1="16" y1="36" x2="8"   y2="44" stroke="white" stroke-width="2.5" stroke-linecap="round"/>
  <line x1="16" y1="36" x2="24"  y2="42" stroke="white" stroke-width="2.5" stroke-linecap="round"/>
</g>
<text x="480" y="1192" font-family="Impact,Arial Narrow,Arial,sans-serif"
  font-size="14" fill="white" text-anchor="middle" letter-spacing="2">FAMILIAR</text>

<!-- ───────── MOBILIDADE ───────── (800,1114) -->
<g transform="translate(800,1114)">
  <circle r="60" fill="#161616" stroke="#404040" stroke-width="2"/>
  <!-- winged arrow: bold forward arrow with wings -->
  <!-- arrow shaft -->
  <rect x="-28" y="-7" width="50" height="14" rx="7" fill="white"/>
  <!-- arrowhead -->
  <polygon points="20,-18 46,0 20,18" fill="white"/>
  <!-- upper wing -->
  <path d="M-10,-7 C-14,-20 -30,-24 -36,-16 C-28,-10 -18,-8 -10,-7Z" fill="white"/>
  <!-- lower wing -->
  <path d="M-10,7 C-14,20 -30,24 -36,16 C-28,10 -18,8 -10,7Z" fill="white"/>
  <!-- speed lines left -->
  <line x1="-50" y1="-8"  x2="-36" y2="-8"  stroke="white" stroke-width="3"   stroke-linecap="round"/>
  <line x1="-54" y1="0"   x2="-42" y2="0"   stroke="white" stroke-width="2.5" stroke-linecap="round"/>
  <line x1="-50" y1="8"   x2="-36" y2="8"   stroke="white" stroke-width="3"   stroke-linecap="round"/>
</g>
<text x="800" y="1192" font-family="Impact,Arial Narrow,Arial,sans-serif"
  font-size="14" fill="white" text-anchor="middle" letter-spacing="2">MOBILIDADE</text>

<!-- ───────── RELÍQUIA ───────── (320,1282) -->
<g transform="translate(320,1282)">
  <circle r="60" fill="#161616" stroke="#404040" stroke-width="2"/>
  <!-- ornate amulet: outer ring with cardinal diamond flourishes -->
  <circle r="36" fill="none" stroke="white" stroke-width="2.5"/>
  <!-- 4 diamond flourishes on ring -->
  <polygon points="0,-36 -6,-28 0,-22 6,-28" fill="white"/>
  <polygon points="0,36 -6,28 0,22 6,28"     fill="white"/>
  <polygon points="-36,0 -28,-6 -22,0 -28,6" fill="white"/>
  <polygon points="36,0 28,-6 22,0 28,6"      fill="white"/>
  <!-- inner circle -->
  <circle r="22" fill="none" stroke="white" stroke-width="2"/>
  <!-- central octagonal gem -->
  <polygon points="0,-18 12,-12 18,0 12,12 0,18 -12,12 -18,0 -12,-12" fill="white"/>
  <!-- gem facet lines -->
  <line x1="0"   y1="-18" x2="0"   y2="18" stroke="#161616" stroke-width="1.5"/>
  <line x1="-18" y1="0"   x2="18"  y2="0"  stroke="#161616" stroke-width="1.5"/>
  <line x1="-12" y1="-12" x2="12"  y2="12" stroke="#161616" stroke-width="1"/>
  <line x1="12"  y1="-12" x2="-12" y2="12" stroke="#161616" stroke-width="1"/>
  <!-- gem shine -->
  <polygon points="-6,-12 0,-6 -12,-6" fill="white" opacity="0.4"/>
</g>
<text x="320" y="1360" font-family="Impact,Arial Narrow,Arial,sans-serif"
  font-size="14" fill="white" text-anchor="middle" letter-spacing="2">RELÍQUIA</text>

<!-- ───────── SUBVERSÃO ───────── (640,1282) -->
<g transform="translate(640,1282)">
  <circle r="60" fill="#161616" stroke="#404040" stroke-width="2"/>
  <!-- coiled snake from above / side: clean bold shape -->
  <!-- snake coil body: thick path -->
  <path d="M0,34 C20,34 36,20 36,0 C36,-20 20,-36 0,-36 C-20,-36 -32,-20 -32,-4 C-32,10 -20,20 -8,18 C4,16 10,6 8,-4 C6,-12 0,-16 -4,-12"
    fill="none" stroke="white" stroke-width="9" stroke-linecap="round"/>
  <!-- snake head at tail end -->
  <ellipse cx="-8" cy="-22" rx="12" ry="9" fill="white" transform="rotate(-30,-8,-22)"/>
  <!-- eye -->
  <circle cx="-4" cy="-26" r="3" fill="#161616" transform="rotate(-30,-8,-22)"/>
  <!-- tongue -->
  <line x1="-18" y1="-28" x2="-26" y2="-24" stroke="white" stroke-width="2.5" stroke-linecap="round" transform="rotate(-30,-8,-22)"/>
  <line x1="-18" y1="-28" x2="-28" y2="-32" stroke="white" stroke-width="2.5" stroke-linecap="round" transform="rotate(-30,-8,-22)"/>
  <!-- scale texture marks on body -->
  <circle cx="30"  cy="-10" r="2.5" fill="#161616"/>
  <circle cx="26"  cy="18"  r="2.5" fill="#161616"/>
  <circle cx="-22" cy="30"  r="2.5" fill="#161616"/>
  <circle cx="-28" cy="8"   r="2.5" fill="#161616"/>
  <circle cx="-14" cy="10"  r="2.5" fill="#161616"/>
</g>
<text x="640" y="1360" font-family="Impact,Arial Narrow,Arial,sans-serif"
  font-size="14" fill="white" text-anchor="middle" letter-spacing="2">SUBVERSÃO</text>

<!-- bottom rule -->
<rect x="0" y="1355" width="960" height="2" fill="#303030"/>

</svg>